<svg width="38" height="39" viewBox="0 0 38 39" fill="none" xmlns="http://www.w3.org/2000/svg">
<path fill-rule="evenodd" clip-rule="evenodd" d="M12.3557 3.901C13.3305 3.901 14.1208 4.68593 14.1208 5.65418V11.4981C14.1208 12.4664 13.3305 13.2513 12.3557 13.2513C11.3808 13.2513 10.5906 12.4664 10.5906 11.4981V5.65418C10.5906 4.68593 11.3808 3.901 12.3557 3.901Z" fill="#1B1D1E"/>
<path fill-rule="evenodd" clip-rule="evenodd" d="M12.3557 16.1733C13.3305 16.1733 14.1208 16.9582 14.1208 17.9265V33.7051C14.1208 34.6733 13.3305 35.4583 12.3557 35.4583C11.3808 35.4583 10.5906 34.6733 10.5906 33.7051V17.9265C10.5906 16.9582 11.3808 16.1733 12.3557 16.1733Z" fill="#1B1D1E"/>
<path fill-rule="evenodd" clip-rule="evenodd" d="M7.06051 3.901C8.03535 3.901 8.82561 4.68593 8.82561 5.65418V12.6669C8.82561 13.5969 9.19754 14.4887 9.85958 15.1463C10.5216 15.8038 11.4195 16.1733 12.3558 16.1733C13.2921 16.1733 14.19 15.8038 14.852 15.1463C15.5141 14.4887 15.886 13.5968 15.886 12.6669V5.65418C15.886 4.68593 16.6763 3.901 17.6511 3.901C18.6259 3.901 19.4162 4.68593 19.4162 5.65418V12.6669C19.4162 14.5268 18.6723 16.3105 17.3483 17.6256C16.0242 18.9408 14.2283 19.6796 12.3558 19.6796C10.4833 19.6796 8.68743 18.9408 7.36335 17.6256C6.03927 16.3105 5.29541 14.5268 5.29541 12.6669V5.65418C5.29541 4.68593 6.08567 3.901 7.06051 3.901Z" fill="#1B1D1E"/>
<path fill-rule="evenodd" clip-rule="evenodd" d="M31.0193 4.21822C31.4909 4.54632 31.7717 5.08228 31.7717 5.65419V33.7051C31.7717 34.6733 30.9815 35.4583 30.0066 35.4583C29.0318 35.4583 28.2415 34.6733 28.2415 33.7051V26.108H21.7695C21.2686 26.108 20.7914 25.8966 20.4566 25.5266C20.1218 25.1565 19.9611 24.6627 20.0144 24.168L21.7695 24.3548C20.0144 24.168 20.0144 24.1685 20.0144 24.168L20.0151 24.1625L20.0163 24.151L20.0209 24.1105C20.0248 24.0759 20.0306 24.0262 20.0383 23.9621C20.0537 23.8341 20.0769 23.6491 20.1085 23.4146C20.1717 22.9456 20.2688 22.2775 20.4059 21.4701C20.6793 19.8593 21.1148 17.6747 21.7628 15.4032C22.407 13.1447 23.2814 10.7278 24.458 8.6901C25.6122 6.69138 27.2045 4.80076 29.4034 4.00656C29.9446 3.81112 30.5477 3.89012 31.0193 4.21822ZM23.7965 22.6016H28.2415V9.31872C27.9985 9.65158 27.7578 10.0233 27.5203 10.4346C26.5457 12.1224 25.7653 14.2345 25.1593 16.359C24.557 18.4704 24.1467 20.5227 23.887 22.053C23.8544 22.2447 23.8243 22.4279 23.7965 22.6016Z" fill="#1B1D1E"/>
</svg>
