<svg width="121" height="130" viewBox="0 0 121 130" fill="none" xmlns="http://www.w3.org/2000/svg">
<rect x="5.88623" y="8.42793" width="110.109" height="114.118" rx="20" fill="#FFEDD5"/>
<path d="M22.342 25.6915V29.4848V33.2782V37.0715V40.8648V44.6581V48.4514V52.2447H26.0021H29.6621H33.3222H36.9822H40.6423H44.3023H47.9623V48.4514V44.6581V40.8648V37.0715V33.2782V29.4848V25.6915H44.3023H40.6423H36.9822H33.3222H29.6621H26.0021H22.342ZM51.6224 25.6915V29.4848V33.2782H55.2824V29.4848H58.9425V25.6915H55.2824H51.6224ZM58.9425 29.4848V33.2782H62.6025V29.4848H58.9425ZM62.6025 33.2782V37.0715H66.2626H69.9226V33.2782V29.4848V25.6915H66.2626V29.4848V33.2782H62.6025ZM62.6025 37.0715H58.9425H55.2824H51.6224V40.8648H55.2824H58.9425V44.6581H55.2824V48.4514H58.9425V52.2447H62.6025V48.4514H66.2626V52.2447H62.6025V56.038H58.9425V59.8313H62.6025H66.2626V63.6247H69.9226V59.8313V56.038V52.2447V48.4514V44.6581H66.2626V40.8648H62.6025V37.0715ZM66.2626 63.6247H62.6025V67.418H58.9425V71.2113V75.0046H62.6025V78.7979V82.5912H58.9425H55.2824V78.7979H58.9425V75.0046H55.2824V71.2113V67.418H51.6224V63.6247H55.2824V67.418H58.9425V63.6247V59.8313H55.2824H51.6224V56.038H47.9623H44.3023H40.6423V59.8313H36.9822V63.6247H33.3222V59.8313H36.9822V56.038H33.3222H29.6621V59.8313H26.0021V63.6247V67.418V71.2113H29.6621V67.418H33.3222H36.9822H40.6423V63.6247H44.3023V59.8313H47.9623V63.6247H44.3023V67.418H47.9623V71.2113H44.3023V75.0046H47.9623H51.6224V78.7979V82.5912V86.3845H55.2824V90.1778H58.9425H62.6025H66.2626V93.9712H62.6025H58.9425H55.2824V90.1778H51.6224V93.9712V97.7645H55.2824V101.558H51.6224V105.351H55.2824H58.9425V101.558H62.6025V105.351H66.2626H69.9226H73.5827H77.2427V101.558H80.9027V105.351H84.5628H88.2228H91.8829V101.558H88.2228H84.5628V97.7645H80.9027V93.9712H77.2427V97.7645H73.5827H69.9226V101.558H66.2626V97.7645H69.9226V93.9712V90.1778V86.3845H73.5827V82.5912H69.9226H66.2626V78.7979H69.9226V75.0046V71.2113V67.418H66.2626V63.6247ZM77.2427 93.9712V90.1778H73.5827V93.9712H77.2427ZM84.5628 97.7645H88.2228H91.8829V93.9712H88.2228H84.5628V97.7645ZM91.8829 93.9712H95.5429V90.1778V86.3845V82.5912V78.7979H91.8829H88.2228H84.5628V75.0046H80.9027V78.7979H77.2427V82.5912V86.3845H80.9027V82.5912H84.5628V86.3845V90.1778H88.2228H91.8829V93.9712ZM80.9027 75.0046V71.2113H77.2427H73.5827V75.0046H77.2427H80.9027ZM84.5628 75.0046H88.2228V71.2113V67.418V63.6247H91.8829V67.418H95.5429V71.2113H99.203V67.418V63.6247H95.5429V59.8313H99.203V56.038H95.5429H91.8829V59.8313H88.2228V56.038H84.5628V59.8313H80.9027V63.6247H84.5628V67.418V71.2113V75.0046ZM80.9027 63.6247H77.2427V67.418H80.9027V63.6247ZM95.5429 71.2113H91.8829V75.0046H95.5429V71.2113ZM44.3023 71.2113V67.418H40.6423V71.2113H44.3023ZM40.6423 71.2113H36.9822H33.3222H29.6621V75.0046H33.3222H36.9822H40.6423V71.2113ZM26.0021 71.2113H22.342V75.0046H26.0021V71.2113ZM26.0021 59.8313V56.038H22.342V59.8313H26.0021ZM51.6224 56.038H55.2824V52.2447V48.4514H51.6224V52.2447V56.038ZM73.5827 25.6915V29.4848V33.2782V37.0715V40.8648V44.6581V48.4514V52.2447H77.2427H80.9027H84.5628H88.2228H91.8829H95.5429H99.203V48.4514V44.6581V40.8648V37.0715V33.2782V29.4848V25.6915H95.5429H91.8829H88.2228H84.5628H80.9027H77.2427H73.5827ZM26.0021 29.4848H29.6621H33.3222H36.9822H40.6423H44.3023V33.2782V37.0715V40.8648V44.6581V48.4514H40.6423H36.9822H33.3222H29.6621H26.0021V44.6581V40.8648V37.0715V33.2782V29.4848ZM77.2427 29.4848H80.9027H84.5628H88.2228H91.8829H95.5429V33.2782V37.0715V40.8648V44.6581V48.4514H91.8829H88.2228H84.5628H80.9027H77.2427V44.6581V40.8648V37.0715V33.2782V29.4848ZM29.6621 33.2782V37.0715V40.8648V44.6581H33.3222H36.9822H40.6423V40.8648V37.0715V33.2782H36.9822H33.3222H29.6621ZM80.9027 33.2782V37.0715V40.8648V44.6581H84.5628H88.2228H91.8829V40.8648V37.0715V33.2782H88.2228H84.5628H80.9027ZM73.5827 56.038V59.8313H77.2427V56.038H73.5827ZM22.342 78.7979V82.5912V86.3845V90.1778V93.9712V97.7645V101.558V105.351H26.0021H29.6621H33.3222H36.9822H40.6423H44.3023H47.9623V101.558V97.7645V93.9712V90.1778V86.3845V82.5912V78.7979H44.3023H40.6423H36.9822H33.3222H29.6621H26.0021H22.342ZM26.0021 82.5912H29.6621H33.3222H36.9822H40.6423H44.3023V86.3845V90.1778V93.9712V97.7645V101.558H40.6423H36.9822H33.3222H29.6621H26.0021V97.7645V93.9712V90.1778V86.3845V82.5912ZM29.6621 86.3845V90.1778V93.9712V97.7645H33.3222H36.9822H40.6423V93.9712V90.1778V86.3845H36.9822H33.3222H29.6621ZM95.5429 97.7645V101.558H99.203V97.7645H95.5429Z" fill="#FED7AA"/>
<g filter="url(#filter0_d_29_541)">
<path d="M12.2429 65.161L108.39 65.1528" stroke="#FDBA74" stroke-width="4" stroke-linecap="round"/>
</g>
<path d="M75.2527 13.3587C108.588 13.3587 108.588 13.3588 108.588 46.3378" stroke="#FDBA74" stroke-width="5" stroke-linecap="round"/>
<path d="M75.2527 116.886C108.588 116.886 108.588 116.886 108.588 83.9066" stroke="#FDBA74" stroke-width="5" stroke-linecap="round"/>
<path d="M45.7468 13.3587C12.4111 13.3587 12.4111 13.3588 12.4111 46.3378" stroke="#FDBA74" stroke-width="5" stroke-linecap="round"/>
<path d="M45.7471 116.886C12.4114 116.886 12.4113 116.886 12.4113 83.9066" stroke="#FDBA74" stroke-width="5" stroke-linecap="round"/>
<defs>
<filter id="filter0_d_29_541" x="8.24292" y="63.1528" width="104.147" height="8.00818" filterUnits="userSpaceOnUse" color-interpolation-filters="sRGB">
<feFlood flood-opacity="0" result="BackgroundImageFix"/>
<feColorMatrix in="SourceAlpha" type="matrix" values="0 0 0 0 0 0 0 0 0 0 0 0 0 0 0 0 0 0 127 0" result="hardAlpha"/>
<feOffset dy="2"/>
<feGaussianBlur stdDeviation="1"/>
<feComposite in2="hardAlpha" operator="out"/>
<feColorMatrix type="matrix" values="0 0 0 0 0.992157 0 0 0 0 0.729412 0 0 0 0 0.454902 0 0 0 0.5 0"/>
<feBlend mode="normal" in2="BackgroundImageFix" result="effect1_dropShadow_29_541"/>
<feBlend mode="normal" in="SourceGraphic" in2="effect1_dropShadow_29_541" result="shape"/>
</filter>
</defs>
</svg>
